HIERARCHY
ROOT Hips
{
	OFFSET -0.001795 -0.223333 0.028219
	CHANNELS 6 Xposition Yposition Zposition Zrotation Yrotation Xrotation 
	JOINT LeftUpLeg
	{
		OFFSET 0.069520 -0.091406 -0.006815
		CHANNELS 3 Zrotation Yrotation Xrotation
		JOINT LeftLeg
		{
			OFFSET 0.034277 -0.375199 -0.004496
			CHANNELS 3 Zrotation Yrotation Xrotation
			JOINT LeftFoot
			{
				OFFSET -0.013596 -0.397961 -0.043693
				CHANNELS 3 Zrotation Yrotation Xrotation
				JOINT LeftToe
				{
					OFFSET 0.026358 -0.055791 0.119288
					CHANNELS 3 Zrotation Yrotation Xrotation
					End Site
					{
						OFFSET 0.000000 0.000000 0.000000
					}
				}
			}
		}
	}
	JOINT RightUpLeg
	{
		OFFSET -0.067670 -0.090522 -0.004320
		CHANNELS 3 Zrotation Yrotation Xrotation
		JOINT RightLeg
		{
			OFFSET -0.038290 -0.382569 -0.008850
			CHANNELS 3 Zrotation Yrotation Xrotation
			JOINT RightFoot
			{
				OFFSET 0.015774 -0.398415 -0.042312
				CHANNELS 3 Zrotation Yrotation Xrotation
				JOINT RightToe
				{
					OFFSET -0.025372 -0.048144 0.123348
					CHANNELS 3 Zrotation Yrotation Xrotation
					End Site
					{
						OFFSET 0.000000 0.000000 0.000000
					}
				}
			}
		}
	}
	JOINT Spine
	{
		OFFSET -0.002533 0.108963 -0.026696
		CHANNELS 3 Zrotation Yrotation Xrotation
		JOINT Spine1
		{
			OFFSET 0.005487 0.135180 0.001092
			CHANNELS 3 Zrotation Yrotation Xrotation
			JOINT Spine2
			{
				OFFSET 0.001457 0.052922 0.025425
				CHANNELS 3 Zrotation Yrotation Xrotation
				JOINT Neck
				{
					OFFSET -0.002778 0.213870 -0.042857
					CHANNELS 3 Zrotation Yrotation Xrotation
					JOINT Head
					{
						OFFSET 0.005152 0.064970 0.051349
						CHANNELS 3 Zrotation Yrotation Xrotation
						End Site
						{
							OFFSET 0.000000 0.000000 0.000000
						}
					}
				}
				JOINT LeftShoulder
				{
					OFFSET 0.078845 0.121749 -0.034090
					CHANNELS 3 Zrotation Yrotation Xrotation
					JOINT LeftArm
					{
						OFFSET 0.090977 0.030469 -0.008868
						CHANNELS 3 Zrotation Yrotation Xrotation
						JOINT LeftForeArm
						{
							OFFSET 0.259612 -0.012772 -0.027456
							CHANNELS 3 Zrotation Yrotation Xrotation
							JOINT LeftHand
							{
								OFFSET 0.249234 0.008986 -0.001171
								CHANNELS 3 Zrotation Yrotation Xrotation
								End Site
								{
									OFFSET 0.000000 0.000000 0.000000
								}
							}
						}
					}
				}
				JOINT RightShoulder
				{
					OFFSET -0.081759 0.118833 -0.038615
					CHANNELS 3 Zrotation Yrotation Xrotation
					JOINT RightArm
					{
						OFFSET -0.096012 0.032551 -0.009143
						CHANNELS 3 Zrotation Yrotation Xrotation
						JOINT RightForeArm
						{
							OFFSET -0.253742 -0.013329 -0.021401
							CHANNELS 3 Zrotation Yrotation Xrotation
							JOINT RightHand
							{
								OFFSET -0.255298 0.007772 -0.005559
								CHANNELS 3 Zrotation Yrotation Xrotation
								End Site
								{
									OFFSET 0.000000 0.000000 0.000000
								}
							}
						}
					}
				}
			}
		}
	}
}
MOTION
Frames: 10
Frame Time: 0.050000
-0.078387 0.854029 -0.045506 -1.570553 1.581255 17.232853 14.914857 1.348739 -52.001171 -12.239853 4.468870 38.442812 7.051628 15.795845 4.586859 0.000000 0.000000 0.000000 -4.676907 2.880773 -48.915068 4.905813 -0.995550 41.203047 -6.562762 -16.710757 -2.433996 0.000000 0.000000 0.000000 -4.301805 -0.575117 60.353230 -2.413985 1.158048 -13.431723 -1.562495 13.547223 21.133096 12.090215 -4.662890 -17.552431 0.000000 0.000000 0.000000 10.827671 -17.450304 5.993229 -54.753970 -26.102434 1.566317 -115.002300 -59.296913 82.722021 0.000000 0.000000 0.000000 -0.892352 14.770745 6.152012 59.263762 37.233345 15.447635 0.183352 60.353885 5.946154 0.000000 0.000000 0.000000 
-0.078439 0.854668 -0.046903 -1.550874 1.820554 17.661974 14.915125 1.297172 -52.454919 -12.603900 4.591001 38.181857 7.166450 16.051846 4.640175 0.000000 0.000000 0.000000 -4.939400 2.758230 -49.597110 5.316438 -1.234961 41.104897 -6.659045 -16.995875 -2.148718 0.000000 0.000000 0.000000 -4.207577 -0.722032 60.621828 -2.593126 1.216024 -13.756826 -1.534974 13.472805 21.233997 11.690580 -4.229870 -18.239742 0.000000 0.000000 0.000000 10.548121 -17.890027 6.091242 -55.350851 -26.117832 1.631105 -114.278440 -58.466406 81.034558 0.000000 0.000000 0.000000 -0.115953 15.191589 6.547670 58.384192 37.157591 14.890541 -0.718358 59.771250 5.381417 0.000000 0.000000 0.000000 
-0.078383 0.855149 -0.048246 -1.560240 1.836526 17.867813 14.818572 1.262978 -52.769027 -12.906566 4.718967 38.037490 7.500422 16.716991 5.009514 0.000000 0.000000 0.000000 -5.217223 2.658102 -49.915170 5.760012 -1.459923 40.998923 -6.964148 -17.824550 -1.688138 0.000000 0.000000 0.000000 -4.230403 -0.714816 60.772466 -2.796786 1.279721 -14.085707 -1.592999 13.327089 21.588110 11.518770 -4.095851 -18.415408 0.000000 0.000000 0.000000 10.403230 -18.196535 6.152859 -55.984987 -26.332194 1.778013 -113.257867 -58.976066 80.755668 0.000000 0.000000 0.000000 0.032996 15.319904 6.641770 57.959284 37.223787 14.669149 -1.024789 59.583434 5.195903 0.000000 0.000000 0.000000 
-0.078311 0.855353 -0.049561 -1.574957 1.977795 18.040864 14.823314 1.243916 -53.254559 -13.464398 4.962012 38.003426 7.851280 17.412117 5.421459 0.000000 0.000000 0.000000 -5.774359 2.414333 -50.266549 6.194732 -1.704935 40.958806 -6.795241 -17.396799 -1.589941 0.000000 0.000000 0.000000 -4.080655 -0.874413 61.270914 -2.882319 1.306059 -15.007501 -1.620802 13.224944 22.162745 11.355871 -3.800679 -19.301533 0.000000 0.000000 0.000000 10.164751 -18.819349 6.288773 -56.984916 -26.272107 1.809619 -111.066348 -59.339778 79.073047 0.000000 0.000000 0.000000 0.501007 15.709162 6.925357 57.630735 37.143800 14.359302 -2.228965 59.334403 4.496552 0.000000 0.000000 0.000000 
-0.078055 0.856450 -0.050822 -1.618908 1.694431 18.187683 14.727063 1.293680 -53.385572 -13.599821 5.072382 38.027503 7.873259 17.436167 5.592127 0.000000 0.000000 0.000000 -6.133250 2.344130 -50.438697 6.200858 -1.662903 40.779974 -6.474099 -16.599004 -1.493649 0.000000 0.000000 0.000000 -4.051366 -0.791843 61.584852 -3.153804 1.381428 -16.144420 -1.608546 12.859989 22.971540 11.419368 -3.761189 -19.952200 0.000000 0.000000 0.000000 10.501610 -19.173939 6.346292 -58.232916 -26.689620 2.092518 -107.388370 -60.083661 76.661531 0.000000 0.000000 0.000000 1.132606 16.125346 7.231992 57.323622 37.512043 14.229903 -2.141283 58.472872 4.379372 0.000000 0.000000 0.000000 
-0.077726 0.856261 -0.052043 -1.658333 1.652673 18.571835 14.824840 1.388797 -54.214511 -14.165156 5.392522 38.328400 8.012289 17.721124 6.044871 0.000000 0.000000 0.000000 -6.452040 2.247693 -51.032347 6.465908 -1.781312 40.532801 -6.387410 -16.398161 -1.485915 0.000000 0.000000 0.000000 -3.780501 -0.953559 61.765093 -3.199569 1.385843 -17.494484 -1.887592 12.526493 23.476709 11.316513 -3.384433 -21.593372 0.000000 0.000000 0.000000 9.750197 -19.083939 6.308688 -58.426623 -26.091699 1.921175 -103.215002 -60.093386 72.726792 0.000000 0.000000 0.000000 2.673730 16.028564 7.593118 56.392931 37.198834 13.367571 -0.268447 57.650227 5.291450 0.000000 0.000000 0.000000 
-0.077254 0.856418 -0.053276 -1.517449 1.629205 18.939447 14.640595 1.317678 -54.530002 -14.497950 5.513147 37.966060 8.187119 18.065569 6.294539 0.000000 0.000000 0.000000 -7.055679 2.009921 -51.380271 7.148318 -2.100850 39.913400 -6.681141 -17.198215 -1.213428 0.000000 0.000000 0.000000 -3.730935 -0.965690 61.458888 -3.047012 1.339481 -18.469948 -1.966130 12.134461 23.945811 11.304675 -3.233818 -22.537734 0.000000 0.000000 0.000000 9.139055 -19.372962 6.370809 -58.909875 -25.706359 1.873175 -99.137429 -61.071652 70.176514 0.000000 0.000000 0.000000 3.089606 16.013352 7.673351 56.241166 36.853533 12.963796 1.251181 57.034891 5.970483 0.000000 0.000000 0.000000 
-0.076644 0.855651 -0.054428 -1.484025 1.324973 19.108393 14.863109 1.513253 -54.588477 -15.146474 5.816852 37.542859 8.542260 18.693751 6.638780 0.000000 0.000000 0.000000 -7.658899 1.843216 -51.699067 7.507211 -2.204485 39.147158 -6.412928 -16.547643 -1.178072 0.000000 0.000000 0.000000 -3.525738 -1.002277 61.922618 -3.137973 1.349395 -20.413086 -2.214238 11.595695 24.706125 11.373523 -3.029302 -24.202640 0.000000 0.000000 0.000000 8.559054 -19.664239 6.428798 -59.353298 -25.110708 1.743320 -94.828636 -62.672035 68.302584 0.000000 0.000000 0.000000 4.138597 16.143539 7.947914 55.733435 36.654188 12.379190 2.013645 56.179616 6.175694 0.000000 0.000000 0.000000 
-0.075973 0.856422 -0.055490 -1.387715 1.143408 19.020870 14.691033 1.467670 -54.181863 -15.267422 5.828334 37.005376 8.592631 18.765015 6.758994 0.000000 0.000000 0.000000 -8.236777 1.638093 -51.486561 7.701370 -2.252820 38.530361 -6.280353 -16.243016 -0.870248 0.000000 0.000000 0.000000 -3.256773 -1.115625 62.208858 -3.487688 1.422382 -22.219771 -2.338194 11.123113 25.724352 11.523118 -3.001743 -25.271500 0.000000 0.000000 0.000000 8.092007 -19.630548 6.400460 -59.924623 -24.404578 1.474635 -90.657113 -63.946212 66.241923 0.000000 0.000000 0.000000 5.208713 15.991368 8.072200 55.472729 36.230585 11.775181 3.318848 55.638676 6.714037 0.000000 0.000000 0.000000 
-0.075280 0.855366 -0.056470 -1.346886 0.724842 19.008551 14.752548 1.629074 -54.323589 -15.671325 6.049887 36.794335 8.718859 18.957993 7.155767 0.000000 0.000000 0.000000 -8.582237 1.607286 -51.931148 8.068592 -2.348892 38.063340 -6.370789 -16.543376 -0.474848 0.000000 0.000000 0.000000 -2.786361 -1.281577 62.469421 -3.885385 1.483682 -24.387760 -2.666044 10.670662 26.567106 11.813787 -3.099233 -26.122785 0.000000 0.000000 0.000000 6.827362 -19.383445 6.344989 -59.567747 -22.784508 0.766588 -89.407722 -63.924206 65.395609 0.000000 0.000000 0.000000 7.265275 15.713970 8.369018 54.496864 35.694779 10.780949 4.382883 54.383724 6.946980 0.000000 0.000000 0.000000 
